<svg width="1920" height="1080" xmlns="http://www.w3.org/2000/svg" style="background-color:white">
<line x1="0" y1="0" x2="0" y2="1080" stroke="#f0f0f0" stroke-width="1" />
<line x1="80" y1="0" x2="80" y2="1080" stroke="#f0f0f0" stroke-width="1" />
<line x1="160" y1="0" x2="160" y2="1080" stroke="#f0f0f0" stroke-width="1" />
<line x1="240" y1="0" x2="240" y2="1080" stroke="#f0f0f0" stroke-width="1" />
<line x1="320" y1="0" x2="320" y2="1080" stroke="#f0f0f0" stroke-width="1" />
<line x1="400" y1="0" x2="400" y2="1080" stroke="#f0f0f0" stroke-width="1" />
<line x1="480" y1="0" x2="480" y2="1080" stroke="#f0f0f0" stroke-width="1" />
<line x1="560" y1="0" x2="560" y2="1080" stroke="#f0f0f0" stroke-width="1" />
<line x1="640" y1="0" x2="640" y2="1080" stroke="#f0f0f0" stroke-width="1" />
<line x1="720" y1="0" x2="720" y2="1080" stroke="#f0f0f0" stroke-width="1" />
<line x1="800" y1="0" x2="800" y2="1080" stroke="#f0f0f0" stroke-width="1" />
<line x1="880" y1="0" x2="880" y2="1080" stroke="#f0f0f0" stroke-width="1" />
<line x1="960" y1="0" x2="960" y2="1080" stroke="#f0f0f0" stroke-width="1" />
<line x1="1040" y1="0" x2="1040" y2="1080" stroke="#f0f0f0" stroke-width="1" />
<line x1="1120" y1="0" x2="1120" y2="1080" stroke="#f0f0f0" stroke-width="1" />
<line x1="1200" y1="0" x2="1200" y2="1080" stroke="#f0f0f0" stroke-width="1" />
<line x1="1280" y1="0" x2="1280" y2="1080" stroke="#f0f0f0" stroke-width="1" />
<line x1="1360" y1="0" x2="1360" y2="1080" stroke="#f0f0f0" stroke-width="1" />
<line x1="1440" y1="0" x2="1440" y2="1080" stroke="#f0f0f0" stroke-width="1" />
<line x1="1520" y1="0" x2="1520" y2="1080" stroke="#f0f0f0" stroke-width="1" />
<line x1="1600" y1="0" x2="1600" y2="1080" stroke="#f0f0f0" stroke-width="1" />
<line x1="1680" y1="0" x2="1680" y2="1080" stroke="#f0f0f0" stroke-width="1" />
<line x1="1760" y1="0" x2="1760" y2="1080" stroke="#f0f0f0" stroke-width="1" />
<line x1="1840" y1="0" x2="1840" y2="1080" stroke="#f0f0f0" stroke-width="1" />
<line x1="0" y1="0" x2="1920" y2="0" stroke="#f0f0f0" stroke-width="1" />
<line x1="0" y1="80" x2="1920" y2="80" stroke="#f0f0f0" stroke-width="1" />
<line x1="0" y1="160" x2="1920" y2="160" stroke="#f0f0f0" stroke-width="1" />
<line x1="0" y1="240" x2="1920" y2="240" stroke="#f0f0f0" stroke-width="1" />
<line x1="0" y1="320" x2="1920" y2="320" stroke="#f0f0f0" stroke-width="1" />
<line x1="0" y1="400" x2="1920" y2="400" stroke="#f0f0f0" stroke-width="1" />
<line x1="0" y1="480" x2="1920" y2="480" stroke="#f0f0f0" stroke-width="1" />
<line x1="0" y1="560" x2="1920" y2="560" stroke="#f0f0f0" stroke-width="1" />
<line x1="0" y1="640" x2="1920" y2="640" stroke="#f0f0f0" stroke-width="1" />
<line x1="0" y1="720" x2="1920" y2="720" stroke="#f0f0f0" stroke-width="1" />
<line x1="0" y1="800" x2="1920" y2="800" stroke="#f0f0f0" stroke-width="1" />
<line x1="0" y1="880" x2="1920" y2="880" stroke="#f0f0f0" stroke-width="1" />
<line x1="0" y1="960" x2="1920" y2="960" stroke="#f0f0f0" stroke-width="1" />
<line x1="0" y1="1040" x2="1920" y2="1040" stroke="#f0f0f0" stroke-width="1" />
<text x="840.00" y="30.00" fill="#333" font-family="Arial" font-size="18" font-weight="bold">Perspective View — Frame 1</text>
<text x="10.00" y="1070.00" fill="#888" font-family="Arial" font-size="11" font-weight="normal">Camera @ (235, 0, 1) cm  | Target: scene centroid  | FOV 60°</text>
<rect x="1700" y="18" width="16" height="14" fill="#2980b9" />
<text x="1722" y="30" fill="black" font-family="Arial" font-size="13">FLS E (lb3)</text>
<rect x="1700" y="40" width="16" height="14" fill="#e74c3c" />
<text x="1722" y="52" fill="black" font-family="Arial" font-size="13">FLS F (lb2)</text>
<rect x="1700" y="62" width="16" height="14" fill="#2c3e50" />
<text x="1722" y="74" fill="black" font-family="Arial" font-size="13">Motion arrow — lb3</text>
<rect x="1700" y="84" width="16" height="14" fill="#7f8c8d" />
<text x="1722" y="96" fill="black" font-family="Arial" font-size="13">Motion arrow — lb2</text>
<line x1="1153.73" y1="568.37" x2="1151.07" y2="532.64" stroke="#2980b9" stroke-width="6.06" stroke-opacity="0.9" />
<circle cx="1152.47" cy="551.47" r="6" fill="#2980b9" fill-opacity="1.0" />
<text x="1162.47" y="543.47" fill="#2980b9" font-family="Arial" font-size="15" font-weight="bold">FLS E</text>
<defs><marker id="arrow_51" markerWidth="6" markerHeight="6" refX="3" refY="3" orient="auto"><path d="M0,0 L0,6 L6,3 z" fill="#2c3e50" /></marker></defs>
<line x1="1152.47" y1="551.47" x2="1152.47" y2="551.47" stroke="#2c3e50" stroke-width="2.00" marker-end="url(#arrow_51)" />
<line x1="580.36" y1="470.01" x2="486.82" y2="405.80" stroke="#e74c3c" stroke-width="8.12" stroke-opacity="0.9" />
<circle cx="536.99" cy="440.24" r="6" fill="#e74c3c" fill-opacity="1.0" />
<text x="546.99" y="432.24" fill="#e74c3c" font-family="Arial" font-size="15" font-weight="bold">FLS F</text>
<defs><marker id="arrow_56" markerWidth="6" markerHeight="6" refX="3" refY="3" orient="auto"><path d="M0,0 L0,6 L6,3 z" fill="#7f8c8d" /></marker></defs>
<line x1="536.99" y1="440.24" x2="536.99" y2="440.24" stroke="#7f8c8d" stroke-width="2.00" marker-end="url(#arrow_56)" />
</svg>