<svg version="1.2" xmlns="http://www.w3.org/2000/svg" viewBox="0 0 842 595" width="842" height="595">
	<style>
		.s0 { fill: none;stroke: #000000;stroke-miterlimit:10 } 
	</style>
	<g id="Layer 1">
		<path id="Shape 6" fill-rule="evenodd" class="s0" d="m43.85 530.23h22.32v-74.56l34.91-8.06v54.78h19.82v-66.07l8.69-39.98h19.55l7.33 31.68v42.28h26.61v56.86h-17.73v-30.74h45.15v-88.49h19.38v62.43h29.48v42.3h16.77v-87.17l10.69-74.69 26.47-13.14h15.29"/>
		<path id="Shape 7" fill-rule="evenodd" class="s0" d="m329.64 280.96v93.14"/>
		<path id="Shape 8" fill-rule="evenodd" class="s0" d="m305.49 510.56v-92.61h10.64v-43.26h40.88v39.02h10.41v101.11h-35.64v-71.53h48.61v87.45h52.89v-43.6h35.93v-33.09h42.56v75.95h31.66v-116.21h30.1v113.78h71.66v-24.01l22.56-15.57 22.68 13.08v25.05h26.29"/>
		<path id="Shape 10" fill-rule="evenodd" class="s0" d="m457.42 484.17v-95.15h-40.87v69.37h-17.55v71.02"/>
		<path id="Shape 11" fill-rule="evenodd" class="s0" d="m492.2 451.21v-82.33h64.9v-42.77h37.52v167.98h28.73v-152.24h10.26v-36.93h29.33v37.13h10.16v117.78h-18.79v-57.1h44.48v60.46h21.67v-94.49h38.42v114.63h-19.46v-40.65h40.62v57.7h20.65"/>
	</g>
</svg>